<?xml version="1.0" encoding="iso-8859-1"?>
<!-- Uploaded to: SVG Repo, www.svgrepo.com, Generator: SVG Repo Mixer Tools -->
<!DOCTYPE svg PUBLIC "-//W3C//DTD SVG 1.1//EN" "http://www.w3.org/Graphics/SVG/1.1/DTD/svg11.dtd">
<svg fill="#000000" version="1.1" id="Capa_1" xmlns="http://www.w3.org/2000/svg" xmlns:xlink="http://www.w3.org/1999/xlink" 
	 width="800px" height="800px" viewBox="0 0 57.666 57.666"
	 xml:space="preserve">
<g>
	<path d="M18.908,27.921l7.657,18.739c1.253,3.066,3.286,3.066,4.54,0l7.653-18.739c1.255-3.067,0.212-4.359-2.327-2.885
		l-4.597,2.67V3c0-1.657-1.343-3-3-3c-1.657,0-3,1.343-3,3v24.707c0,0-2.059-1.195-4.599-2.67
		C18.697,23.561,17.654,24.853,18.908,27.921z"/>
	<path d="M30.226,57.666c-0.47,0-0.948-0.004-1.438-0.011c-14.827-0.223-20.334-3.057-20.914-3.379
		c-0.952-0.529-1.542-1.532-1.542-2.621v-12.88c0-1.657,1.343-3,3-3s3,1.343,3,3v10.831c2.325,0.729,7.452,1.913,16.545,2.049
		c9.129,0.136,14.209-1.149,16.455-1.947V38.775c0-1.657,1.343-3,3-3s3,1.343,3,3v12.88c0,1.021-0.519,1.971-1.377,2.522
		C49.386,54.545,44.122,57.666,30.226,57.666z"/>
</g>
</svg>